<svg width="57" height="57" viewBox="0 0 57 57" fill="none" xmlns="http://www.w3.org/2000/svg">
<g clip-path="url(#clip0)">
<path d="M28.2466 56.9882C27.2923 56.9882 26.338 57.0195 25.3837 56.9756C24.5864 56.9381 23.7388 57.1259 23.0294 56.4809C22.8348 56.3056 22.4016 56.3995 22.0751 56.3557C21.4787 56.2743 20.8132 56.4183 20.3549 55.8484C20.3298 55.8171 20.267 55.8108 20.2168 55.7983C19.2813 55.5478 18.3207 55.3474 17.4167 55.0218C16.7763 54.7901 16.1987 54.3768 15.596 54.0449C15.5332 54.0135 15.4892 53.9384 15.4265 53.9133C14.8049 53.6441 14.1583 53.4249 13.5744 53.0992C13.16 52.8675 12.821 52.4981 12.4443 52.1975C12.3187 52.0973 12.1492 52.0472 12.0174 51.947C11.5465 51.5963 11.0819 51.2456 10.6299 50.8761C10.1025 50.4503 9.55632 50.0369 9.07918 49.561C8.30068 48.7845 7.56613 47.9641 6.81902 47.1625C6.38582 46.6928 5.94007 46.2232 5.53826 45.7222C5.13018 45.2149 4.7786 44.6638 4.4019 44.1315C4.00637 43.5805 3.61085 43.0294 3.21532 42.4783C3.19021 42.4407 3.16509 42.3969 3.14626 42.3468C2.91396 41.6892 2.73189 41.0129 2.4431 40.3804C2.16685 39.7604 1.78388 39.1843 1.45114 38.5894C1.41347 38.5267 1.36952 38.4641 1.35069 38.389C1.11839 37.4371 0.886097 36.4664 0.628689 35.5083C0.503125 35.0449 0.327335 34.594 0.195492 34.1306C0.107597 33.8174 0.0134234 33.4981 0.0134234 33.1787C0.00086696 30.179 -0.0116895 27.1731 0.0197016 24.1671C0.0259799 23.8102 0.258274 23.4532 0.390117 23.0963C0.421508 23.0023 0.48429 22.9209 0.503125 22.827C0.760532 21.6622 0.854705 20.4285 1.31929 19.3514C1.67087 18.531 1.59554 17.4977 2.39287 16.8715C2.45565 16.8214 2.48077 16.6961 2.48704 16.6022C2.52471 16.1952 2.62516 15.9071 2.95791 15.5501C3.27182 15.2182 3.32833 14.5982 3.70502 14.1474C4.33284 13.4021 4.82882 12.5505 5.38131 11.7426C5.68266 11.298 5.9589 10.8346 6.29165 10.4087C6.58672 10.033 6.93831 9.70735 7.27733 9.36918C7.75447 8.88698 8.24418 8.41104 8.73388 7.94136C9.31147 7.38401 9.87651 6.80161 10.4918 6.27557C11.1949 5.66812 11.942 5.11077 12.6703 4.52837C12.708 4.49706 12.7582 4.47201 12.8022 4.46575C13.7376 4.29667 14.3968 3.65791 15.1628 3.18197C15.7341 2.82501 16.4561 2.70603 17.0902 2.44301C17.9001 2.11736 18.6786 1.73536 19.4634 1.37841C19.5073 1.35962 19.5513 1.32204 19.5952 1.31578C20.6813 1.09034 21.7675 0.88368 22.8536 0.64571C23.4689 0.5142 24.0716 0.332592 24.6806 0.182295C24.9003 0.132196 25.1263 0.0946222 25.3461 0.0946222C27.33 0.0883599 29.3516 -0.14961 31.279 0.176033C32.4844 0.382691 33.7526 0.401478 34.8827 0.783482C35.6423 1.04024 36.4083 1.12791 37.1428 1.35336C37.8272 1.56001 38.4362 1.99838 39.0765 2.33028C39.1393 2.3616 39.2084 2.4117 39.2774 2.41796C40.6963 2.62462 41.8201 3.40741 42.9565 4.22152C43.7538 4.79139 44.6767 5.17966 45.5243 5.68691C45.8319 5.86852 46.0956 6.1378 46.3467 6.40708C47.031 7.12725 47.6714 7.89752 48.3809 8.59264C49.1154 9.31908 49.9379 9.95784 50.6536 10.6968C51.0114 11.0663 51.1998 11.5923 51.5011 12.0182C51.7837 12.4189 52.1039 12.7947 52.4178 13.1767C52.4617 13.2268 52.5684 13.2393 52.5936 13.2894C52.8572 13.8593 53.0833 14.4542 53.3783 15.0116C53.7299 15.6754 54.138 16.3079 54.5021 16.9654C54.5712 17.0907 54.5272 17.266 54.59 17.3975C54.7156 17.6605 54.8663 17.9173 55.0169 18.1678C55.0546 18.2304 55.1425 18.268 55.1551 18.3306C55.3811 19.27 55.5883 20.2218 55.8331 21.1549C55.921 21.4868 56.1156 21.7937 56.2286 22.1193C56.3165 22.3698 56.3856 22.6391 56.4107 22.9084C56.4861 23.9041 56.3228 24.9812 56.6493 25.883C57.0323 26.9476 57.0071 27.9809 56.982 29.033C56.9695 29.7031 56.7183 30.3606 56.643 31.0369C56.5426 31.9575 56.5174 32.8843 56.4295 33.8049C56.3856 34.2871 56.5488 34.8006 55.965 35.2014C55.7264 35.3642 55.8896 36.0594 55.7955 36.4915C55.7201 36.8484 55.5318 37.1803 55.3874 37.5185C55.3685 37.5623 55.3057 37.5874 55.2932 37.625C55.0546 38.389 54.8663 39.1718 54.5649 39.9044C54.2761 40.6184 53.868 41.2759 53.5102 41.9648C53.4348 42.1151 53.4034 42.2904 53.3093 42.4219C52.9765 42.9104 52.6249 43.3863 52.2859 43.8685C52.2169 43.9625 52.1039 44.0564 52.0976 44.1503C52.0285 45.1586 51.0868 45.5844 50.6348 46.3296C50.3208 46.8431 49.9128 47.294 49.5109 47.7512C49.0275 48.3023 48.5504 48.8596 48.0105 49.3543C47.2759 50.0244 46.5162 50.6694 45.7189 51.2581C45.0283 51.7654 44.2623 52.1599 43.5404 52.6233C43.0193 52.9552 42.5233 53.3247 42.0147 53.6816C41.9771 53.713 41.9457 53.7568 41.9017 53.7756C41.2237 54.0261 40.5268 54.2327 39.8739 54.5271C39.2712 54.7963 38.7124 55.1596 38.1285 55.4789C38.0657 55.5165 38.0092 55.5791 37.9465 55.5979C36.8666 55.8484 35.7805 56.0801 34.7069 56.3431C34.1481 56.4809 33.6019 56.6813 33.0432 56.8253C32.7544 56.9005 32.453 56.9506 32.1517 56.9569C30.8458 56.9694 29.5399 56.9631 28.234 56.9631C28.2466 56.9694 28.2466 56.9819 28.2466 56.9882ZM28.7237 54.4707C30.0422 54.1638 31.9194 54.9842 33.6961 53.9697C34.3741 53.5814 35.3347 53.9697 36.1258 53.3685C36.5715 53.0304 37.2935 53.0867 37.9151 52.7799C38.7689 52.354 39.6541 51.947 40.5268 51.5211C40.9474 51.3145 41.343 51.1642 41.7071 50.8072C42.0964 50.4315 42.7681 50.3689 43.2202 50.0307C43.9547 49.4921 44.6014 48.8346 45.292 48.2396C46.0768 47.5633 46.8804 46.912 47.6526 46.2232C47.8974 46.004 48.0983 45.7347 48.2867 45.4592C48.6069 45.002 48.8894 44.5198 49.197 44.0501C49.5612 43.4928 49.9379 42.9354 50.3083 42.3843C50.3899 42.2654 50.4841 42.1652 50.5782 42.0524C50.8545 41.7205 51.2249 41.4262 51.3944 41.0505C51.6895 40.4054 51.8716 39.7041 52.0976 39.0215C52.1101 38.9714 52.1039 38.8899 52.129 38.8774C53.1209 38.4453 52.4994 37.268 53.2277 36.5917C53.6985 36.1596 53.7362 35.2014 53.8618 34.4625C54.0815 33.1536 54.1945 31.8385 54.4394 30.5297C54.7533 28.8576 54.6465 27.123 54.1568 25.3758C53.7864 24.0669 53.7864 22.6141 53.3783 21.2677C53.1335 20.4723 52.8886 19.6708 52.6375 18.8754C52.6249 18.8316 52.5684 18.8066 52.5433 18.7627C52.1917 18.124 51.8276 17.4977 51.5074 16.8464C51.2249 16.2766 51.1496 15.5063 50.7226 15.1368C49.9944 14.5106 49.8939 13.5274 49.0589 12.9262C48.2553 12.3438 47.9853 11.1727 47.1127 10.4776C46.3404 9.8639 45.8382 8.9496 44.8399 8.57386C44.5135 8.44861 44.2435 8.14176 43.9861 7.87874C43.5592 7.44037 43.2264 6.88928 42.5358 6.79535C42.4228 6.78282 42.2973 6.72646 42.2031 6.65758C41.6632 6.238 41.2551 5.61802 40.464 5.59297C40.3761 5.59297 40.2568 5.54914 40.2066 5.48025C39.6981 4.8227 38.8694 4.73503 38.185 4.4407C37.2747 4.03991 36.2576 3.88335 35.2908 3.61407C35.2468 3.60154 35.2091 3.55145 35.1652 3.53892C34.7634 3.38862 34.3741 3.18197 33.9598 3.10682C33.3696 3.00036 32.7606 3.02541 32.1705 2.92521C31.6745 2.83754 31.2036 2.57452 30.7139 2.53068C29.8664 2.45553 29 2.58078 28.1587 2.46806C26.0367 2.19878 24.059 3.15065 21.9747 3.14439C21.8114 3.14439 21.6419 3.25085 21.485 3.31974C21.1836 3.44498 20.8948 3.60781 20.5872 3.708C19.7961 3.97102 18.9862 4.18394 18.2077 4.47201C17.7431 4.6411 17.3037 4.89785 16.8705 5.14835C16.2991 5.48025 15.7529 5.86226 15.1691 6.18164C14.5789 6.50728 13.9574 6.76404 13.3672 7.08342C13.0784 7.23998 12.8147 7.4529 12.5824 7.6846C12.0425 8.21064 11.5465 8.76799 11.0066 9.29403C10.4353 9.85138 9.81373 10.3649 9.25497 10.9348C8.77782 11.4232 8.43252 12.0745 7.8926 12.4503C7.05131 13.0327 6.84413 13.9908 6.26653 14.7172C5.92751 15.1431 5.76428 15.7004 5.48804 16.1826C5.14901 16.7838 4.69698 17.3286 4.43329 17.9611C4.10055 18.7565 3.9122 19.6144 3.66107 20.4473C3.65479 20.4723 3.65479 20.5099 3.64224 20.5162C2.76956 20.9796 3.21532 21.825 3.05208 22.4951C2.99558 22.7205 2.91396 22.946 2.82607 23.1652C2.73189 23.3969 2.52471 23.6223 2.52471 23.854C2.51216 27.0102 2.52471 30.1665 2.52471 33.3164C2.52471 33.4605 2.52471 33.6922 2.60633 33.7423C3.29066 34.1368 2.99558 34.8069 3.08975 35.3642C3.13998 35.6586 3.08348 36.147 3.22787 36.2097C3.79919 36.4601 3.60457 36.9486 3.73013 37.3494C3.94359 38.0445 4.23867 38.7209 4.49608 39.4035C4.50235 39.4222 4.54002 39.4285 4.55258 39.4473C4.90416 40.0673 5.27458 40.681 5.60104 41.3197C5.88984 41.8896 6.13469 42.4845 6.40466 43.0669C6.42349 43.1045 6.49255 43.1108 6.52394 43.1483C6.84413 43.5116 7.1706 43.8685 7.47823 44.2443C7.88004 44.7327 8.24418 45.2588 8.66482 45.7347C9.09801 46.2357 9.56888 46.6991 10.0335 47.1688C10.3725 47.5132 10.7115 47.8639 11.0882 48.1708C11.5026 48.5027 12.0676 48.7093 12.369 49.1164C12.978 49.943 14.0201 50.0808 14.6982 50.7571C14.8928 50.945 15.056 51.1955 15.2883 51.3019C15.9162 51.59 16.5691 51.8092 17.2158 52.0659C17.3037 52.1035 17.3916 52.1474 17.4794 52.1912C18.2203 52.5481 18.9234 53.0116 19.7019 53.2495C20.763 53.5689 21.8805 53.7255 22.9729 53.9447C23.0231 53.9572 23.0922 53.9572 23.111 53.9885C23.4814 54.6774 24.1532 54.4644 24.7182 54.477C25.8923 54.4957 27.0726 54.4707 28.7237 54.4707Z" fill="white"/>
<path d="M36.9537 13.1572C36.9537 14.8418 36.9537 16.4137 36.9537 18.1233C35.811 18.1233 34.6872 18.0481 33.576 18.1421C32.5777 18.2235 31.7051 18.5491 31.1777 19.6137C30.8512 20.265 30.7885 20.8662 30.7822 21.5238C30.7759 22.4255 30.7885 23.3273 30.7885 24.2291C30.7885 24.7802 31.0396 25.0307 31.6109 25.0244C32.9921 25.0056 34.3733 25.0432 35.7545 25.0119C36.3321 24.9994 36.4891 25.1935 36.4514 25.7508C36.3886 26.6965 36.3447 27.6546 36.3949 28.6002C36.4326 29.3329 36.194 29.9341 35.7859 30.4915C35.6855 30.6292 35.3967 30.6793 35.1958 30.6856C34.0908 30.7044 32.9858 30.6919 31.8809 30.6981C30.8136 30.7044 30.7822 30.7232 30.7822 31.7815C30.7759 36.065 30.7822 40.3421 30.7822 44.6256C30.7822 45.7654 30.7822 45.7654 29.6458 45.7654C28.3399 45.7654 27.0341 45.7716 25.7282 45.7654C24.7551 45.7591 24.5793 45.5775 24.5793 44.6381C24.5793 40.4048 24.5793 36.1777 24.5793 31.9443C24.5793 30.7044 24.573 30.7044 23.3048 30.6981C22.3756 30.6981 21.4465 30.6919 20.5173 30.6981C19.8832 30.7044 19.5504 30.4852 19.5755 29.7713C19.6195 28.5439 19.5881 27.3164 19.5881 26.089C19.5881 25.1434 19.7011 25.0307 20.6868 25.0244C21.6913 25.0182 22.6958 24.9743 23.7003 25.0369C24.3909 25.0808 24.5856 24.7864 24.573 24.1853C24.5605 23.559 24.5542 22.9328 24.5793 22.3066C24.6044 21.6553 24.5667 21.0478 24.9371 20.384C25.2511 19.8141 25.0376 18.9625 25.1192 18.2485C25.1757 17.7538 24.8869 17.1025 25.6466 16.852C25.6843 16.8395 25.7031 16.7143 25.6968 16.6454C25.6654 15.8 26.2744 15.4054 26.852 14.9671C27.1408 14.7479 27.3543 14.4285 27.6305 14.178C27.8126 14.0152 28.0449 13.9087 28.2583 13.7647C28.4781 13.6207 28.679 13.4391 28.9113 13.3263C29.0933 13.2324 29.3131 13.1886 29.5203 13.151C30.2046 13.032 30.8763 12.9318 31.5544 12.7251C32.4899 12.4433 33.6953 12.1803 34.6935 12.9443C34.8316 13.0508 35.0639 13.057 35.2585 13.0696C35.7985 13.1134 36.3447 13.1322 36.9537 13.1572Z" fill="white"/>
</g>
<defs>
<clipPath id="clip0">
<rect width="57" height="57" fill="white"/>
</clipPath>
</defs>
</svg>
