<svg width="57" height="57" viewBox="0 0 57 57" fill="none" xmlns="http://www.w3.org/2000/svg">
<g clip-path="url(#clip0)">
<path d="M32.5068 -0.000566689C32.4691 0.35678 32.5822 0.576204 32.9968 0.576204C33.4239 0.576204 33.8511 0.601281 34.2782 0.645166C34.8248 0.701589 35.4529 0.52605 35.8361 1.12163C35.8487 1.14044 35.8801 1.15297 35.9052 1.14671C36.9542 0.977436 37.7457 1.73601 38.7068 1.90528C38.9958 1.95544 39.2533 2.19994 39.536 2.34413C39.6868 2.41936 39.8564 2.50713 40.0134 2.50713C40.8991 2.51967 41.5462 2.97733 42.1241 3.57917C42.1555 3.61679 42.1995 3.64187 42.2434 3.66694C42.8527 3.93652 43.4683 4.18729 44.0651 4.47568C44.3918 4.63868 44.7121 4.83929 44.9948 5.07126C45.6921 5.64176 46.3705 6.23734 47.0489 6.83291C48.0289 7.69807 49.1344 8.46919 49.9322 9.47854C50.6483 10.3876 51.7727 11.0145 52.0491 12.2872C52.1245 12.632 52.5391 12.889 52.7338 13.2213C53.1547 13.9234 53.5253 14.6569 53.9399 15.3654C54.2791 15.9421 54.6435 16.5001 55.0015 17.0643C55.0141 17.0831 55.0329 17.1082 55.0392 17.127C55.2779 17.8919 55.4978 18.663 55.749 19.4278C55.837 19.6911 55.9815 19.9356 56.1071 20.1864C56.1511 20.2742 56.2453 20.3431 56.2641 20.4309C56.5091 21.6283 56.9049 22.8195 56.9426 24.0295C57.0368 27.1327 57.0242 30.2486 56.93 33.3518C56.8986 34.4803 56.7039 35.6903 56.2265 36.6933C55.9438 37.2826 56.0003 38.0475 55.6423 38.3923C55.0706 38.9503 55.4412 39.8907 54.6749 40.2605C54.6372 40.2794 54.6121 40.342 54.5995 40.3859C54.3545 41.0317 54.1786 41.7213 53.8457 42.3231C53.3997 43.1256 52.8469 43.8842 52.3004 44.6239C51.9863 45.0503 51.9172 45.5831 51.4084 45.953C50.843 46.3605 50.5227 47.0815 50.0578 47.6395C49.6809 48.0971 49.2663 48.5234 48.8392 48.9372C48.412 49.351 47.966 49.7397 47.5075 50.1158C47.1808 50.3854 46.716 50.5484 46.4898 50.8744C45.8491 51.7834 44.8315 52.0969 43.9709 52.6674C43.4683 52.9997 43.0035 53.3821 42.5261 53.7394C42.4884 53.7708 42.4444 53.7959 42.4005 53.8084C41.7158 54.0654 41.0248 54.2974 40.3589 54.5858C39.6051 54.9118 38.8827 55.3067 38.1352 55.6453C37.9405 55.7331 37.7018 55.7393 37.4819 55.7769C37.0359 55.8522 36.5208 55.7142 36.2444 56.2847C36.1879 56.3976 35.8298 56.36 35.61 56.3976C34.9064 56.5167 34.0961 56.1656 33.537 56.9179C33.4553 57.0245 33.1538 56.9869 32.9528 56.9869C30.1637 56.9932 27.3747 56.9994 24.5919 56.9744C24.2967 56.9744 24.0077 56.7236 23.7062 56.6107C23.5052 56.5355 23.2916 56.4854 23.078 56.4415C22.3431 56.2973 21.4762 56.6985 20.9045 55.8961C20.8731 55.8522 20.7601 55.8647 20.691 55.8459C19.7236 55.6077 18.7311 55.4447 17.8014 55.1124C17.1921 54.893 16.677 54.4228 16.0991 54.0968C15.5902 53.8084 15.0751 53.4761 14.5161 53.3257C13.8502 53.1501 13.4231 52.7364 12.9959 52.2599C12.908 52.1596 12.7446 52.1408 12.619 52.0655C12.1542 51.796 11.6328 51.5891 11.2496 51.2317C10.7533 50.7615 10.3011 50.3102 9.66661 49.9842C9.08241 49.6832 8.63641 49.0876 8.17157 48.5798C7.50571 47.8463 6.75819 47.1442 6.2745 46.3041C5.84107 45.5518 5.09983 45.0753 4.82343 44.1537C4.57217 43.3074 3.76811 42.6366 3.31583 41.8216C2.92636 41.1194 2.69394 40.3358 2.37986 39.5897C2.26679 39.3202 2.11603 39.0694 1.97155 38.8123C1.94014 38.7497 1.8522 38.712 1.83335 38.6493C1.60093 37.6839 1.38107 36.7122 1.13608 35.7467C1.0607 35.4583 0.884818 35.2013 0.778029 34.9129C0.683804 34.6621 0.589578 34.3988 0.570733 34.1355C0.495353 33.007 0.476508 31.8786 0.382283 30.7564C0.338311 30.2548 0.11217 29.7784 0.0556353 29.2768C-0.000899836 28.7878 0.0116635 28.2737 0.0744804 27.7847C0.149861 27.1578 0.350874 26.5434 0.426255 25.9102C0.507917 25.1642 0.470226 24.4056 0.564452 23.6596C0.620987 23.227 0.847127 22.8132 0.972761 22.3869C1.04814 22.1236 1.09211 21.854 1.14237 21.5845C1.268 20.9951 0.960198 20.2867 1.69515 19.8604C1.82079 19.7852 1.75797 19.3902 1.78938 19.1394C1.83963 18.7696 1.68259 18.2994 2.23538 18.1552C2.27307 18.1426 2.3296 18.0737 2.32332 18.0486C2.12859 17.2336 2.89496 16.7822 3.07713 16.0926C3.23417 15.4907 3.69273 14.9641 4.0131 14.4062C4.10732 14.2432 4.16386 14.0551 4.27064 13.8984C4.60986 13.4156 4.95535 12.9454 5.30712 12.469C5.37622 12.3749 5.49557 12.2934 5.50814 12.1994C5.65262 11.1587 6.55718 10.7073 7.1665 10.0302C7.39892 9.77319 7.63763 9.50988 7.88889 9.26538C8.52334 8.65726 9.28971 8.14319 9.76712 7.43476C10.4769 6.3878 11.6077 5.9176 12.4871 5.11514C12.8891 4.74525 13.4922 4.59479 13.9821 4.31268C14.2522 4.16221 14.4784 3.93025 14.7422 3.76725C15.2699 3.42871 15.8101 3.10898 16.3503 2.78298C16.432 2.73283 16.5074 2.65759 16.5953 2.62625C17.4182 2.36294 18.3479 2.25636 19.0452 1.80498C19.8367 1.28463 20.7978 1.49778 21.4699 1.09655C22.4498 0.519781 23.4298 0.707858 24.416 0.582473C24.8118 0.532319 25.0316 0.419473 24.9939 -0.00683594C27.4815 -0.000566689 29.9941 -0.000566689 32.5068 -0.000566689ZM54.5241 28.7627H54.5178C54.5178 27.1578 54.5178 25.5529 54.5115 23.948C54.5115 23.7223 54.543 23.3712 54.4236 23.3022C53.7577 22.8947 54.0404 22.2302 53.8959 21.6848C53.6572 20.782 53.3746 19.8855 53.1045 18.989C53.0919 18.9451 53.0416 18.9138 53.0165 18.8699C52.6899 18.2618 52.3381 17.6599 52.0428 17.033C51.7602 16.4311 51.5278 15.8042 51.2702 15.1898C51.2514 15.1522 51.1948 15.1271 51.1634 15.0958C50.8368 14.7196 50.3468 14.3874 50.2274 13.9548C49.9825 13.0645 49.2349 12.6069 48.745 11.9424C48.1231 11.1085 47.2436 10.4628 46.4836 9.72931C45.3466 8.63846 44.3541 7.37834 42.8025 6.78903C42.3314 6.60722 41.9105 6.28749 41.4833 5.9991C41.0562 5.71072 40.6856 5.29068 40.2207 5.10887C39.2219 4.70764 38.198 4.41925 37.2495 3.84248C36.6967 3.50394 35.9303 3.58544 35.2393 3.26571C34.2594 2.81433 33.0345 2.8206 31.9415 2.66386C29.8245 2.35667 27.6071 2.36921 25.4839 2.66386C24.416 2.80806 23.3167 3.04002 22.2174 3.19048C22.1043 3.20302 21.9976 3.28452 21.8908 3.33467C21.6081 3.46633 21.3317 3.6356 21.0365 3.72964C20.1445 4.02429 19.2336 4.26879 18.3416 4.56972C17.9082 4.71391 17.481 4.88318 17.0916 5.11514C16.5262 5.44741 16.0237 5.87999 15.4583 6.21226C14.9746 6.50064 14.4407 6.70126 13.9319 6.94576C13.8502 6.98338 13.7686 7.0398 13.7057 7.10876C13.4293 7.42222 13.2032 7.79211 12.8828 8.04915C12.2861 8.53815 11.6328 8.96446 11.0172 9.42838C10.7345 9.64154 10.4581 9.8735 10.2068 10.118C9.71058 10.6007 9.05101 11.0145 8.78718 11.6101C8.3663 12.5505 7.59366 13.1523 7.00946 13.9234C6.67653 14.3623 6.58859 14.9077 6.174 15.3528C5.74056 15.8167 5.6589 16.6129 5.42019 17.2649C5.40135 17.3088 5.36366 17.3527 5.32597 17.3778C4.66011 17.848 4.58473 18.6693 4.28949 19.3275C3.88118 20.2491 3.75555 21.2961 3.51056 22.2866C3.51684 22.3493 3.51684 22.4183 3.48543 22.4433C2.85098 22.8759 3.02059 23.5467 2.97662 24.1423C2.92636 24.8445 2.93265 25.5466 2.89496 26.2488C2.88867 26.4369 2.82586 26.6312 2.76304 26.8193C2.65625 27.1515 2.44896 27.465 2.42383 27.7973C2.37358 28.4932 2.3987 29.2016 2.41127 29.9037C2.41755 30.1232 2.46152 30.3489 2.52434 30.562C2.64369 30.9632 2.85727 31.3519 2.90752 31.7594C2.98918 32.4052 2.96405 33.0634 2.99546 33.7092C3.00803 33.9286 2.98918 34.2233 3.11481 34.3612C3.93772 35.2765 3.41005 36.6244 4.18898 37.5522C4.40884 37.8155 4.4905 38.1917 4.63498 38.5177C4.92394 39.1697 5.2129 39.8217 5.50814 40.4674C5.74056 40.9815 5.94785 41.5207 6.24309 42.0034C6.57602 42.5488 6.98433 43.0441 7.3738 43.5582C7.53712 43.7776 7.74442 43.9719 7.90146 44.1914C8.41027 44.8935 8.86884 45.6458 9.43419 46.3041C9.9807 46.9498 10.6151 47.5266 11.2559 48.0846C11.6516 48.4294 12.1416 48.6739 12.5876 48.9623C12.7258 49.05 12.8514 49.1566 12.9771 49.2569C13.5613 49.7334 14.114 50.2725 14.7485 50.68C15.3138 51.0437 16.1116 51.1252 16.5639 51.5765C16.9848 51.9966 17.4685 51.9778 17.8956 52.2035C18.5112 52.5357 19.0766 53.0059 19.7299 53.2065C20.8354 53.5451 21.9976 53.7206 23.1345 53.9714C23.3041 54.009 23.4738 54.0529 23.6371 54.1093C24.0203 54.241 24.4034 54.4917 24.7866 54.498C27.5003 54.5294 30.2077 54.5105 32.9214 54.498C33.1727 54.498 33.4239 54.4541 33.6626 54.3914C34.2468 54.2347 34.8185 54.0529 35.3964 53.8899C36.2318 53.6579 37.0673 53.4385 37.8965 53.2003C37.9782 53.1752 38.0221 53.0498 38.0975 52.9997C38.2922 52.8868 38.487 52.7677 38.6943 52.6862C39.3476 52.4166 40.0134 52.1784 40.6667 51.9025C41.075 51.727 41.4896 51.5389 41.854 51.2944C42.3942 50.9371 42.8904 50.5233 43.4118 50.1471C43.6945 49.9403 43.9897 49.7396 44.2787 49.5453C44.7058 49.2632 45.1895 49.0375 45.5664 48.6927C46.1318 48.1786 46.6092 47.5705 47.1557 47.0313C47.8341 46.3605 48.5879 45.7838 49.0465 44.881C49.3543 44.2729 49.9008 43.7901 50.3154 43.2322C50.686 42.7306 51.0503 42.2228 51.3456 41.6774C51.6785 41.063 51.9235 40.3922 52.2313 39.7653C52.5391 39.1321 53.0228 38.549 53.1736 37.8845C53.4123 36.8626 54.1723 35.9786 53.9713 34.8564C53.9588 34.7875 53.9713 34.6684 54.009 34.6433C54.744 34.1919 54.499 33.4521 54.5178 32.8189C54.5555 31.4711 54.5241 30.1169 54.5241 28.7627Z" fill="white"/>
<path d="M14.9812 28.5564C14.9812 26.0487 14.843 23.5347 15.0377 21.0458C15.1319 19.792 15.4586 18.419 16.6772 17.5476C17.0039 17.3156 17.1735 16.858 17.4624 16.5508C17.6572 16.3376 17.9084 16.1182 18.1785 16.0304C18.9637 15.7734 19.5354 15.0901 20.4399 15.0399C21.244 15.0023 22.1486 15.2969 22.8333 14.5446C22.9149 14.4506 23.1725 14.507 23.3484 14.507C26.9917 14.507 30.6288 14.5008 34.2722 14.5196C34.5486 14.5196 34.8187 14.7453 35.0951 14.8518C35.271 14.9208 35.4594 14.996 35.6479 15.0086C36.1756 15.0462 36.7409 14.9333 37.2183 15.0963C37.9847 15.3534 38.7322 15.7044 39.4043 16.1496C40.0325 16.5633 40.5916 17.1088 41.1067 17.6667C41.4333 18.0241 41.7034 18.488 41.8416 18.9456C42.1432 19.9425 42.5263 20.9643 42.5452 21.98C42.6206 26.4876 42.5829 31.0014 42.564 35.5153C42.564 36.0858 42.6959 36.719 42.0803 37.1515C41.9484 37.2456 41.9421 37.5716 41.9296 37.791C41.8982 38.5684 41.4145 39.0637 40.8994 39.5715C40.3717 40.0918 39.9069 40.6811 39.4169 41.2328C39.3855 41.2704 39.3478 41.3269 39.3164 41.3269C38.795 41.3582 38.4056 41.7156 37.9784 41.8911C37.0047 42.2861 35.9054 42.5243 34.8564 42.5368C30.7105 42.6058 26.5709 42.5744 22.425 42.5431C21.9413 42.5368 21.4639 42.2923 20.9802 42.1795C20.6661 42.1043 20.3332 42.0917 20.0253 41.9914C19.7301 41.8911 19.46 41.7156 19.171 41.5714C19.0391 41.5087 18.8946 41.3958 18.769 41.4084C18.1032 41.4773 17.8456 40.8818 17.4624 40.5683C16.8217 40.0479 16.3192 39.3521 15.7538 38.7314C15.7224 38.6938 15.691 38.6499 15.6784 38.606C15.4397 37.6907 15.044 36.7754 15.0063 35.8475C14.9121 33.4213 14.9749 30.9889 14.9749 28.5564C14.9749 28.5564 14.9749 28.5564 14.9812 28.5564ZM17.431 28.6693C17.431 31.0766 17.4687 33.4778 17.4185 35.8852C17.3996 36.7942 18.1848 37.302 18.3293 38.0982C18.3356 38.1296 18.4172 38.1421 18.4549 38.1672C18.857 38.4556 19.2527 38.7502 19.6673 39.0261C20.7038 39.7219 21.8031 40.1608 23.0908 40.1545C26.8284 40.1232 30.5723 40.0793 34.3099 40.1859C35.4657 40.2172 36.3577 39.6028 37.4131 39.4336C37.8591 39.3583 38.4432 38.9822 38.6066 38.5935C38.8641 37.9854 39.6116 37.6343 39.5237 36.8506C39.5111 36.7503 39.6242 36.6312 39.6807 36.5246C39.8064 36.2801 40.0325 36.0419 40.0325 35.8037C40.0514 30.9951 40.0451 26.1866 40.0451 21.3718C40.0451 21.1775 40.0451 20.8452 39.9571 20.8076C39.1971 20.513 39.6807 19.5099 38.9018 19.14C38.2548 18.8328 37.8591 17.9739 37.2058 17.6981C36.2949 17.3156 35.2584 17.09 34.2659 17.0649C30.7545 16.9834 27.2367 16.9708 23.7253 17.0398C22.582 17.0649 21.445 17.4222 20.3143 17.6354C20.2138 17.6542 20.1133 17.7545 20.0316 17.836C19.504 18.3375 18.97 18.8265 18.4675 19.3532C17.9335 19.9174 17.4875 20.6007 17.4687 21.3656C17.3933 23.8043 17.431 26.2368 17.431 28.6693Z" fill="white"/>
<path d="M35.6679 28.5441C35.6679 29.171 35.6868 29.7979 35.6617 30.4249C35.6428 30.7885 35.7936 31.2649 35.2094 31.3903C35.1591 31.4029 35.1089 31.5094 35.1026 31.5784C34.9958 32.732 34.1352 33.3025 33.3249 33.9356C32.9982 34.1927 32.747 34.55 32.458 34.8635C32.4077 34.9137 32.3701 34.9952 32.3072 35.0077C31.3524 35.2522 30.4102 35.5406 29.4365 35.7036C28.8272 35.8039 28.1802 35.7412 27.5583 35.6973C27.062 35.666 26.4778 35.8102 26.17 35.1958C26.1323 35.1268 25.9439 35.1017 25.8245 35.1017C25.0896 35.0892 24.7064 34.5626 24.273 34.0924C23.8207 33.5971 23.2491 33.1959 22.8659 32.6505C22.4387 32.0486 21.9739 31.3653 21.8671 30.6694C21.6912 29.5409 21.842 28.3686 21.7791 27.2213C21.6975 25.8546 22.5078 24.839 23.2553 23.9362C23.739 23.3469 24.4677 22.8077 25.2843 22.394C26.6286 21.7169 27.9226 21.2655 29.4051 21.4097C29.8134 21.4473 30.2092 21.673 30.6112 21.8047C30.7494 21.8485 30.8939 21.8987 31.0383 21.9175C31.4278 21.9802 31.9115 21.8423 32.0497 22.4253C32.0623 22.4755 32.2256 22.5005 32.3198 22.5131C33.2746 22.6322 33.6892 23.4911 34.2985 24.0428C34.845 24.5318 35.1717 25.2715 35.5674 25.911C35.6491 26.0489 35.6428 26.2496 35.6428 26.4251C35.6491 27.1272 35.6491 27.8294 35.6491 28.5316C35.6617 28.5441 35.6679 28.5441 35.6679 28.5441ZM28.5948 33.2398C29.4805 33.2648 30.184 33.1583 30.9504 32.7194C31.7042 32.2931 32.3763 31.9859 32.5585 31.0769C32.5836 30.9578 32.7218 30.8637 32.8035 30.7571C32.9166 30.5941 33.1113 30.4311 33.1176 30.2681C33.1553 28.8513 33.6641 27.3968 32.5585 26.0928C31.9743 25.4032 31.4781 24.676 30.5672 24.3939C30.4039 24.3437 30.228 24.2935 30.1024 24.1932C29.6689 23.8359 28.199 23.6541 27.7091 23.9362C27.062 24.3061 26.3459 24.6007 25.7994 25.0897C25.077 25.7355 24.2478 26.3687 24.3232 27.541C24.3798 28.3372 24.2416 29.1585 24.3672 29.9359C24.474 30.5879 24.6813 31.4029 25.1461 31.7853C26.1386 32.6066 27.1877 33.5219 28.5948 33.2398Z" fill="white"/>
<path d="M37.9291 20.8826C37.7155 21.5095 37.5522 21.9923 37.3701 22.5439C36.6665 22.5439 35.9504 22.5439 35.1652 22.5439C35.0961 21.9546 34.179 21.7039 34.4993 20.9516C34.7003 20.4876 34.983 20.03 35.3285 19.6601C35.6677 19.3027 36.6602 19.4093 36.9492 19.7416C37.2947 20.1428 37.6402 20.5441 37.9291 20.8826Z" fill="white"/>
</g>
<defs>
<clipPath id="clip0">
<rect width="57" height="57" fill="white"/>
</clipPath>
</defs>
</svg>
