<svg width="56" height="56" viewBox="0 0 56 56" fill="none" xmlns="http://www.w3.org/2000/svg">
<g clip-path="url(#clip0)">
<path d="M31.4731 0C31.6519 0.184778 31.7999 0.486582 32.0095 0.529697C32.5089 0.628245 33.0453 0.554334 33.5509 0.646722C34.0811 0.745271 34.5928 0.954686 35.1107 1.10251C35.2957 1.15794 35.493 1.1641 35.6903 1.1949C36.1773 1.26881 36.7075 1.15178 37.0651 1.6938C37.1699 1.84778 37.5769 1.78003 37.8296 1.87242C38.1502 1.98944 38.4523 2.1619 38.7606 2.31588C38.8223 2.34668 38.8716 2.42059 38.9332 2.44523C39.5991 2.67928 40.2958 2.85174 40.9247 3.1597C41.4734 3.42455 41.9358 3.8557 42.4598 4.1883C42.8791 4.45315 43.3353 4.66256 43.7546 4.92741C44.1553 5.17994 44.5499 5.45711 44.9198 5.75275C45.2897 6.04839 45.5733 6.47954 45.9803 6.6828C46.8434 7.10779 47.3551 7.88385 48.0395 8.49362C48.8533 9.22657 49.3404 10.1813 50.0309 10.982C50.4871 11.5117 51.0359 11.8997 51.2331 12.6511C51.3318 13.033 51.7695 13.3286 52.0593 13.6612C52.1086 13.7167 52.2011 13.7413 52.2258 13.7967C52.497 14.3942 52.7437 15.0101 53.0334 15.6014C53.3417 16.2358 53.7055 16.8517 54.0137 17.4923C54.137 17.751 54.1247 18.0651 54.2295 18.3361C54.3405 18.6194 54.5131 18.8843 54.6611 19.1553C54.7042 19.2354 54.7967 19.3154 54.7906 19.3955C54.7721 20.8429 55.7277 22.1179 55.4996 23.6146C55.4441 23.9718 55.7647 24.3845 55.888 24.7787C55.9496 24.9635 55.9866 25.1606 55.9866 25.3515C55.9928 27.2978 55.9928 29.2442 55.9805 31.1905C55.9805 31.3999 55.8942 31.6155 55.8263 31.8187C55.7092 32.1698 55.5181 32.5024 55.4688 32.8597C55.3948 33.3709 55.4564 33.8944 55.3948 34.4056C55.3701 34.6397 55.1851 34.8491 55.0803 35.077C55.0125 35.2248 54.92 35.3665 54.883 35.5143C54.7659 36.0933 54.8645 36.6476 54.3836 37.2266C53.8966 37.8117 53.8719 38.7664 53.5513 39.5178C53.28 40.1584 52.8731 40.7435 52.5279 41.3594C52.4785 41.4457 52.4477 41.5381 52.4046 41.6243C51.9668 42.4927 51.6894 43.5275 51.042 44.1927C50.3022 44.9503 49.8274 45.8495 49.1801 46.6379C48.7423 47.1676 48.1381 47.568 47.6202 48.0361C47.3613 48.2701 47.1393 48.5411 46.8681 48.7629C46.1344 49.3726 45.376 49.9578 44.6424 50.5675C44.3094 50.8447 44.0135 51.1711 43.7052 51.4791C43.6559 51.5284 43.6251 51.6454 43.5819 51.6454C42.5092 51.7008 41.8495 52.5939 40.9185 52.9512C40.1601 53.2468 39.4758 53.7334 38.7421 54.0968C38.2674 54.3308 37.7618 54.6265 37.2501 54.6696C36.017 54.7682 34.9874 55.6982 33.668 55.4765C33.3413 55.421 32.959 55.7475 32.5891 55.8768C32.4103 55.9384 32.213 55.9877 32.0219 55.9877C29.2351 55.9938 26.4484 56 23.6616 55.9754C23.4027 55.9754 23.1437 55.7598 22.8786 55.6736C22.5642 55.575 22.2436 55.5011 21.923 55.4334C21.3003 55.2978 20.5235 55.6982 20.0919 54.9037C20.0857 54.8852 20.0487 54.8852 20.0241 54.879C19.1609 54.6511 18.2484 54.5279 17.4469 54.1707C16.7256 53.8504 15.8686 53.7272 15.3076 53.0744C15.2521 53.0128 15.1411 52.9696 15.0486 52.9635C14.3149 52.9142 13.8895 52.3599 13.3655 51.9718C13.273 51.9041 13.1682 51.8055 13.0572 51.7932C12.379 51.7193 12.0707 51.1157 11.5714 50.7831C11.4542 50.703 11.3124 50.6661 11.2076 50.5799C10.7514 50.2226 10.2951 49.8592 9.85122 49.4897C9.59844 49.2741 9.35799 49.04 9.11137 48.8121C8.3777 48.1408 7.60086 47.5187 6.92883 46.7858C6.35546 46.1637 5.91771 45.4184 5.40599 44.7347C5.13471 44.3775 4.83261 44.0449 4.549 43.7C4.45036 43.5768 4.37637 43.429 4.29006 43.2996C3.95096 42.7761 3.61187 42.2464 3.26661 41.7228C3.24195 41.6859 3.18029 41.6612 3.16796 41.6181C2.92135 40.9899 2.69323 40.3555 2.42812 39.7334C2.09519 38.9635 1.73143 38.2059 1.38001 37.4483C1.36151 37.4052 1.33068 37.3621 1.31835 37.3128C1.05324 36.0994 0.806628 34.8861 0.523021 33.6788C0.436706 33.3031 0.233249 32.9582 0.103776 32.5887C0.0421224 32.41 -0.0133659 32.2191 -0.0195312 32.0282C-0.00103516 29.3735 -0.00720052 26.7127 0.0174609 24.0519C0.0174609 23.824 0.220918 23.6023 0.307233 23.3744C0.405879 23.1157 0.51069 22.8509 0.553848 22.5799C0.652493 21.9023 0.43054 21.1447 1.07174 20.5966C1.16422 20.5165 1.15189 20.3194 1.18888 20.1777C1.42316 19.2785 1.51564 18.3176 1.92256 17.5046C2.34797 16.6546 2.91518 15.8786 3.11864 14.9239C3.97563 14.8069 3.37142 13.6859 4.18525 13.4149C4.53051 13.2978 4.65998 12.5895 4.94359 12.1892C5.23952 11.7703 5.61561 11.407 5.93005 11.0004C6.23831 10.6001 6.48493 10.1566 6.79936 9.76859C7.2556 9.20194 7.71184 8.63528 8.22356 8.11175C8.77228 7.55741 9.37648 7.05851 9.95603 6.52882C10.0423 6.44875 10.1225 6.3194 10.2273 6.30092C10.9425 6.16542 11.3062 5.59261 11.7686 5.13066C11.9783 4.92125 12.2495 4.76727 12.5208 4.62561C13.1435 4.29916 13.8464 4.08359 14.3889 3.6586C14.8637 3.28905 15.4864 3.23361 15.8624 2.90101C16.2015 2.59921 16.5345 2.60537 16.8674 2.46986C17.6504 2.14958 18.4087 1.76155 19.1732 1.40431C19.2596 1.3612 19.352 1.2996 19.4445 1.2996C20.8194 1.23801 22.0525 0.375715 23.4767 0.58513C23.8651 0.640563 24.1734 0.511219 24.0932 0.0123185C26.5409 0 29.007 0 31.4731 0ZM27.8048 53.5794C27.8048 53.5733 27.8048 53.5733 27.8048 53.5794C29.0872 53.5733 30.3695 53.5794 31.6519 53.5671C31.9417 53.5671 32.25 53.5363 32.5274 53.4562C33.6865 53.1175 34.8148 52.6494 35.9924 52.4276C36.8678 52.2613 37.5275 51.4606 38.4955 51.6516C38.5387 51.6577 38.6003 51.5592 38.662 51.5222C38.8901 51.3867 39.1182 51.2451 39.3587 51.128C39.5374 51.0418 39.7594 51.0418 39.9135 50.9371C40.6472 50.4136 41.3131 49.7668 42.1022 49.3665C42.7743 49.0277 43.4463 48.7752 43.8779 48.1038C44.0443 47.8451 44.3588 47.685 44.5992 47.4694C45.1664 46.9582 45.7398 46.4593 46.2885 45.9296C46.8249 45.4122 47.3551 44.8887 47.8545 44.3282C48.1628 43.9833 48.4032 43.5829 48.6622 43.2011C48.9581 42.7576 49.2356 42.3018 49.5377 41.8522C49.8583 41.3718 50.259 40.9221 50.5118 40.4109C50.8139 39.795 50.9865 39.1236 51.2208 38.4769C51.2393 38.4338 51.2455 38.3537 51.2763 38.3476C52.0901 38.0581 51.7079 37.128 52.2196 36.5737C52.6265 36.1302 52.6265 35.2125 52.867 34.5042C53.2739 33.3093 53.4958 32.0035 53.5267 30.7347C53.576 28.5051 53.7424 26.2877 53.2246 24.0273C52.9225 22.6969 52.4231 21.3665 52.3367 19.9745C52.3306 19.8821 52.2998 19.7466 52.2381 19.7158C51.3565 19.2169 52.01 18.0774 51.227 17.4307C50.7646 17.0488 50.6906 16.205 50.4378 15.5645C50.4193 15.5213 50.3638 15.5029 50.333 15.4659C50.0432 15.1456 49.7041 14.8561 49.476 14.4989C48.9396 13.6612 48.4649 12.7805 47.9347 11.9366C47.7497 11.6348 47.4969 11.37 47.2441 11.1175C46.9174 10.7972 46.5598 10.5077 46.2207 10.1936C45.6535 9.66388 45.1109 9.10339 44.5129 8.59833C44.1306 8.27189 43.6621 8.05631 43.2552 7.75451C42.8359 7.44039 42.4722 7.05235 42.0344 6.75671C41.6152 6.47338 41.1219 6.28861 40.6904 6.02376C40.1417 5.685 39.6608 5.20458 39.0812 4.95821C38.3167 4.62561 37.3426 4.64408 36.7137 4.16982C36.1033 3.70788 35.5176 3.72019 34.8888 3.6278C34.784 3.60933 34.6976 3.49846 34.5928 3.44919C34.3524 3.326 34.1181 3.14738 33.8653 3.11043C33.2118 3.01188 32.4596 3.14738 31.8986 2.87638C30.9491 2.42059 29.9935 2.54993 29.0255 2.4945C28.7789 2.48218 28.5261 2.51298 28.2857 2.47602C26.0846 2.17422 23.9946 2.96876 21.8367 3.11043C21.7442 3.11659 21.6024 3.15354 21.5839 3.20898C21.3743 3.78795 20.8687 3.60317 20.4556 3.67092C20.0549 3.73867 19.648 3.80642 19.2596 3.92345C18.9821 4.00352 18.7355 4.1883 18.4642 4.293C18.3101 4.3546 18.1066 4.31148 17.9648 4.39155C17.3853 4.72415 16.8489 5.16146 16.2324 5.41399C15.4432 5.74043 14.7034 6.09767 14.0622 6.67664C13.7662 6.94765 13.384 7.12011 13.0387 7.33568C12.5948 7.61901 12.1447 7.89617 11.7193 8.19798C11.4727 8.3766 11.2508 8.59217 11.035 8.8139C10.5047 9.3436 9.98069 9.87946 9.46896 10.4153C8.9634 10.945 8.43935 11.4624 7.98311 12.029C7.65635 12.4355 7.44056 12.9344 7.13846 13.3656C6.6144 14.117 5.84373 14.7699 5.56629 15.6014C5.18404 16.7286 4.22224 17.5909 4.19141 18.8473C4.19141 18.8905 4.16059 18.9644 4.12976 18.9767C3.45773 19.1799 3.70435 19.7589 3.63036 20.2085C3.59954 20.3995 3.66736 20.7198 3.56255 20.7752C2.76105 21.2556 3.15563 22.044 3.01999 22.6907C2.97067 22.9186 2.90902 23.1403 2.8227 23.3559C2.72406 23.6084 2.49594 23.8487 2.48977 24.095C2.45895 26.7066 2.46511 29.3119 2.47128 31.9235C2.47128 32.139 2.48977 32.4716 2.61308 32.5394C3.1433 32.8227 2.97067 33.297 3.01999 33.7096C3.07548 34.1716 2.95217 34.8183 3.21112 35.0462C3.63653 35.4158 3.58104 35.8038 3.63036 36.2226C3.65503 36.4444 3.6057 36.7893 3.72285 36.857C4.59216 37.3806 4.11743 38.5015 4.82028 39.1606C5.27652 39.5917 5.31967 40.4171 5.6711 40.996C6.16433 41.7906 6.7562 42.5297 7.32958 43.2688C7.80432 43.8847 8.27288 44.5007 8.8031 45.0673C9.25318 45.5477 9.80806 45.9296 10.2766 46.3977C10.9918 47.106 11.6515 47.8698 12.3729 48.5658C12.6626 48.8429 13.0572 49.0031 13.4025 49.2248C13.6614 49.3973 13.9019 49.6005 14.1731 49.7607C14.6417 50.0378 15.1288 50.2965 15.6097 50.5552C15.7145 50.6107 15.844 50.6107 15.9426 50.6661C16.4667 50.9987 16.9476 51.4422 17.5148 51.6516C18.0943 51.8671 18.68 51.9041 19.2842 52.2552C20.1042 52.7356 21.1955 52.7664 22.1696 52.9881C22.3361 53.0251 22.5087 53.0497 22.6752 53.0928C23.2732 53.2468 23.8651 53.5055 24.4755 53.5486C25.5852 53.6287 26.7012 53.5794 27.8048 53.5794Z" fill="white"/>
<path d="M21.5541 20.7752C22.0782 19.7589 22.855 19.6419 23.7428 19.6111C24.7539 19.5741 25.765 19.2908 26.7762 19.297C27.6332 19.3031 28.5333 19.4571 29.3286 19.7528C29.6924 19.8883 30.1794 20.2701 30.1671 20.9292C30.1301 23.0972 30.2164 25.2653 30.124 27.4272C30.087 28.2033 30.6973 28.388 30.9871 28.8561C31.0118 28.8931 31.283 28.85 31.3632 28.7699C32.1647 27.9446 33.0155 27.15 33.7245 26.2508C34.1376 25.7272 34.2917 25.0005 34.6185 24.3968C34.9206 23.8302 35.2967 23.3005 35.642 22.7585C35.6543 22.74 35.6851 22.7277 35.6913 22.703C35.9502 21.9701 36.2092 21.2371 36.4989 20.418C39.0452 20.418 41.6347 20.418 44.3536 20.418C44.1255 21.0955 44.7729 21.8284 43.8542 22.2288C43.8111 22.2473 43.7864 22.3643 43.7864 22.432C43.8172 23.2451 43.1329 23.6331 42.7445 24.1936C42.4424 24.6309 42.2142 25.1175 41.906 25.5548C41.5484 26.066 41.123 26.5279 40.7592 27.033C40.2598 27.7352 39.7974 28.4681 39.3042 29.1764C39.0391 29.5583 38.7123 29.8601 38.7555 30.4206C38.8233 31.1843 39.3658 31.5662 39.8159 32.0405C40.1057 32.3484 40.3954 32.6626 40.6852 32.9705C40.9565 33.26 41.2401 33.531 41.5175 33.8205C42.0663 34.3933 42.6273 34.9477 43.1452 35.5451C43.5336 35.9947 43.8542 36.4998 44.218 36.9679C44.4399 37.2512 44.2303 37.8856 44.0145 38.1566C43.3672 38.9573 42.4978 38.7294 41.684 38.7418C40.3523 38.7664 39.0206 38.8034 37.6889 38.7479C36.912 38.7171 36.2832 38.2429 35.7098 37.744C35.1611 37.2635 34.5938 36.8016 34.076 36.2842C33.5766 35.7853 33.1881 35.1632 32.6456 34.7198C32.362 34.4857 31.8626 34.4303 31.4618 34.4364C31.2276 34.4364 30.9624 34.6828 30.7652 34.8676C29.9698 35.619 30.1794 36.6168 30.1363 37.553C30.1116 38.0458 29.5013 38.7171 29.0019 38.7233C27.9168 38.7418 26.8255 38.7972 25.7527 38.6863C24.8587 38.5939 23.8908 38.4461 23.1324 38.0211C22.3063 37.5592 21.3137 37.3375 20.6663 36.5183C20.3827 36.161 19.8463 36.0255 19.4764 35.7237C19.1065 35.4281 18.7859 35.0585 18.4591 34.7074C18.2186 34.4549 18.046 34.11 17.7686 33.9191C17.1767 33.5125 16.8068 32.9829 16.5232 32.33C16.3629 31.9481 15.9868 31.6586 15.7155 31.3199C15.5984 31.1782 15.5182 31.0057 15.4134 30.8517C15.0866 30.3836 14.7599 29.9217 14.4269 29.4598C14.4023 29.4228 14.3345 29.4105 14.316 29.3674C14.0509 28.7946 13.8166 28.2094 13.533 27.6489C13.2247 27.0453 12.8733 26.4602 12.5465 25.8689C12.2629 25.3638 11.9361 24.8834 11.7203 24.3537C11.5662 23.9719 11.745 23.436 11.1408 23.3128C11.221 22.4197 10.179 21.8407 10.4749 20.8861C10.5181 20.7506 10.5058 20.6027 10.5304 20.381C12.7438 20.381 14.9202 20.381 17.115 20.381C17.3986 21.1448 17.6083 21.8715 17.9412 22.5429C18.2125 23.0911 18.6564 23.553 18.977 24.0827C19.2544 24.5385 19.3962 25.0867 19.7045 25.5178C20.2655 26.2939 20.4998 27.304 21.4061 27.8337C21.6774 27.9938 21.8747 28.2895 22.0967 28.5235C22.5159 28.9609 23.2989 28.7761 23.4099 28.154C23.6195 26.9899 23.8476 25.8135 23.8538 24.6432C23.8599 23.6885 23.6442 22.7092 23.3667 21.7853C23.2619 21.4404 22.7255 21.194 22.3494 20.9661C22.1398 20.8429 21.8562 20.8429 21.5541 20.7752Z" fill="white"/>
</g>
<defs>
<clipPath id="clip0">
<rect width="56" height="56" fill="white"/>
</clipPath>
</defs>
</svg>
